<svg xmlns="http://www.w3.org/2000/svg" xmlns:xlink="http://www.w3.org/1999/xlink" width="100" zoomAndPan="magnify" viewBox="0 0 75 74.999997" height="100" preserveAspectRatio="xMidYMid meet" version="1.0"><path fill="#229954" d="M 40.804688 46.535156 L 40.804688 3.304688 C 40.804688 2.429688 40.464844 1.589844 39.839844 0.964844 C 39.214844 0.355469 38.375 0 37.5 0 C 36.625 0 35.785156 0.355469 35.160156 0.964844 C 34.535156 1.589844 34.195312 2.429688 34.195312 3.304688 L 34.195312 46.535156 C 34.195312 46.535156 27.894531 40.230469 24.375 36.714844 C 23.75 36.089844 22.910156 35.75 22.035156 35.75 C 21.160156 35.75 20.320312 36.089844 19.695312 36.714844 C 18.410156 38 18.410156 40.089844 19.695312 41.375 L 35.285156 56.964844 C 35.875 57.554688 36.660156 57.875 37.5 57.875 C 38.339844 57.875 39.125 57.554688 39.714844 56.964844 L 55.304688 41.375 C 56.589844 40.089844 56.589844 38 55.304688 36.714844 C 54.679688 36.089844 53.839844 35.75 52.964844 35.75 C 52.089844 35.75 51.25 36.089844 50.625 36.714844 C 47.089844 40.230469 40.804688 46.535156 40.804688 46.535156 Z M 40.804688 46.535156 " fill-opacity="1" fill-rule="evenodd"/><path fill="#229954" d="M 0 68.75 C 0 70.410156 0.660156 72 1.839844 73.160156 C 3.019531 74.339844 4.605469 75 6.25 75 L 68.75 75 C 70.410156 75 72 74.339844 73.160156 73.160156 C 74.339844 71.980469 75 70.394531 75 68.75 L 75 49.839844 C 75 48.019531 73.519531 46.535156 71.695312 46.535156 C 70.820312 46.535156 69.980469 46.894531 69.355469 47.5 C 68.730469 48.125 68.394531 48.964844 68.394531 49.839844 L 68.394531 65.285156 C 68.394531 67.019531 67 68.410156 65.269531 68.410156 L 9.730469 68.410156 C 8 68.410156 6.605469 67.019531 6.605469 65.285156 L 6.605469 49.839844 C 6.605469 48.964844 6.25 48.125 5.644531 47.5 C 5.019531 46.875 4.179688 46.535156 3.304688 46.535156 C 1.480469 46.535156 0 48.019531 0 49.839844 Z M 0 68.75 " fill-opacity="1" fill-rule="evenodd"/></svg>